<?xml version="1.0" standalone="no"?><!DOCTYPE svg PUBLIC "-//W3C//DTD SVG 1.1//EN" "http://www.w3.org/Graphics/SVG/1.1/DTD/svg11.dtd"><svg t="1643714368950" class="icon" viewBox="0 0 1024 1024" version="1.1" xmlns="http://www.w3.org/2000/svg" p-id="3434" width="64" height="64" xmlns:xlink="http://www.w3.org/1999/xlink"><defs><style type="text/css"></style></defs><path d="M341.333333 981.333333c-46.933333 0-85.333333-34.133333-85.333333-81.066666V426.666667l174.933333-358.4c4.266667-17.066667 21.333333-25.6 38.4-25.6 93.866667 0 170.666667 76.8 170.666667 170.666666v128h200.533333c72.533333 0 128 55.466667 128 128v21.333334l-59.733333 384c-8.533333 64-64 106.666667-128 106.666666H341.333333z m-298.666666-85.333333v-384c0-46.933333 38.4-85.333333 85.333333-85.333333s85.333333 38.4 85.333333 85.333333v384c0 46.933333-38.4 85.333333-85.333333 85.333333s-85.333333-38.4-85.333333-85.333333z" p-id="3435"></path></svg>